# xmcd
# Track frame offsets:
# 150
# 36864
# 66104
# 108557
# 147075
# 177925
# 213347
# 232951
# 260411
#
# Disc length: 3875 seconds
# Revision: 2
# Processed by: cddbd v1.5.2PL0 Copyright (c) Steve Scherf et al.
# Submitted via: VisiTrax 2.10.1.251 - For more info visit www.synapsa.com
#
DISCID=7c0f2109
DTITLE=Joey DeFrancesco - Organic Vibes
DYEAR=2005
DGENRE=Jazz
TTITLE0=The Tackle
TTITLE1=Little B's Poem
TTITLE2=I Thought About You
TTITLE3=Somewhere in the Night
TTITLE4=Down the Hatch
TTITLE5=Speak Low
TTITLE6=JeNeane's Dream
TTITLE7=My Foolish Heart
TTITLE8=Collen
EXTD=Rcd in Tempe, Arizona in August 2005\nJoey De Francesco - Organ\nBobb
EXTD=y Hutcherson - Vibes\nRon Blake - Saxes and flute\nGeorge Coleman - Te
EXTD=nor Sax\nJake Langley - Guitar\nByron Landham - Drums
EXTT0=
EXTT1=
EXTT2=
EXTT3=
EXTT4=
EXTT5=
EXTT6=
EXTT7=
EXTT8=
PLAYORDER=
